<?xml version="1.0" standalone="no"?>
<!DOCTYPE svg PUBLIC "-//W3C//DTD SVG 20010904//EN"
 "http://www.w3.org/TR/2001/REC-SVG-20010904/DTD/svg10.dtd">
<svg version="1.0" xmlns="http://www.w3.org/2000/svg"
 width="200.000000pt" height="200.000000pt" viewBox="0 0 200.000000 200.000000"
 preserveAspectRatio="xMidYMid meet">

<g transform="translate(0.000000,200.000000) scale(0.100000,-0.100000)"
fill="#000000" stroke="none">
<path d="M1494 1265 c-4 -8 -3 -23 0 -32 6 -15 8 -15 23 -1 16 17 12 48 -7 48
-6 0 -13 -7 -16 -15z"/>
<path d="M685 1261 c-3 -5 -1 -12 5 -16 20 -12 10 -43 -16 -49 -47 -12 -70
-123 -31 -154 14 -11 87 -10 87 1 0 4 0 57 0 117 0 102 -1 110 -19 110 -11 0
-22 -4 -26 -9z m13 -141 c3 -56 -11 -87 -28 -60 -11 17 -13 103 -3 114 16 16
28 -4 31 -54z"/>
<path d="M288 1200 c4 -49 4 -50 -23 -50 -26 0 -27 2 -23 45 3 41 1 45 -17 43
-18 -3 -20 -12 -25 -101 -5 -88 -3 -97 13 -97 29 0 31 3 28 48 -2 40 -1 42 24
42 26 0 27 -2 23 -45 -3 -43 -2 -45 24 -45 25 0 27 2 17 23 -6 14 -7 50 -1
100 4 42 6 80 3 82 -2 3 -14 5 -26 5 -20 0 -22 -4 -17 -50z"/>
<path d="M950 1232 c-48 -39 -34 -180 20 -197 26 -8 57 2 64 21 5 13 1 15 -17
10 -37 -9 -61 24 -61 84 0 55 19 87 40 69 8 -6 14 -18 14 -25 0 -8 7 -14 15
-14 15 0 19 24 7 50 -10 22 -55 24 -82 2z"/>
<path d="M1406 1215 c-11 -26 -13 -42 -6 -49 5 -5 10 -36 10 -67 0 -60 17 -82
46 -58 17 14 19 33 3 23 -6 -3 -15 -1 -19 6 -10 17 0 93 14 103 8 6 7 10 -1
14 -7 2 -13 12 -13 21 0 10 -4 23 -9 31 -7 11 -13 5 -25 -24z"/>
<path d="M375 1184 c-17 -18 -16 -35 3 -42 7 -2 12 6 12 18 0 34 25 18 28 -19
2 -22 0 -31 -7 -26 -23 14 -51 -6 -51 -35 0 -34 13 -44 62 -46 l36 -2 -5 76
c-3 43 -11 80 -17 84 -18 13 -44 9 -61 -8z m45 -109 c0 -26 -14 -33 -25 -15
-9 14 1 40 15 40 5 0 10 -11 10 -25z"/>
<path d="M494 1192 c-7 -5 -9 -27 -4 -67 4 -33 3 -65 -1 -71 -12 -15 -3 -22
24 -17 20 4 22 9 19 69 -3 52 -1 64 12 64 12 0 16 -15 18 -67 2 -52 6 -68 18
-68 12 0 14 14 12 75 -4 84 -13 101 -42 82 -12 -7 -21 -8 -25 -2 -7 12 -16 12
-31 2z"/>
<path d="M749 1196 c-7 -7 33 -129 48 -147 14 -17 3 -39 -21 -43 -9 -1 -16 -5
-16 -9 0 -4 0 -11 0 -17 0 -18 39 -11 50 9 5 11 18 55 29 98 10 43 20 85 22
93 3 10 -3 15 -16 15 -17 0 -19 -6 -17 -35 2 -19 -1 -46 -6 -60 -9 -24 -10
-23 -21 18 -7 23 -11 50 -9 60 3 16 -31 30 -43 18z"/>
<path d="M1070 1193 c-12 -3 -15 -19 -13 -81 2 -80 10 -93 50 -78 15 6 15 8 0
19 -14 10 -16 22 -10 65 4 37 9 50 16 43 16 -16 27 -13 27 7 0 26 -10 33 -31
22 -9 -6 -19 -6 -21 -2 -2 4 -10 6 -18 5z"/>
<path d="M1192 1193 c-40 -16 -47 -116 -11 -149 16 -14 24 -15 44 -6 27 13 35
38 9 28 -19 -7 -44 10 -44 30 0 9 11 14 30 14 28 0 30 3 30 35 0 24 -6 37 -19
45 -11 5 -21 10 -23 9 -2 0 -9 -3 -16 -6z m28 -38 c0 -16 -6 -25 -15 -25 -15
0 -21 31 -8 43 13 14 23 6 23 -18z"/>
<path d="M1292 1188 c-17 -17 -15 -48 4 -48 11 0 15 6 11 20 -7 26 19 27 28 1
8 -26 -4 -51 -21 -44 -36 14 -62 -58 -26 -75 21 -10 82 -10 82 1 0 4 0 34 0
66 0 41 -5 65 -16 75 -18 19 -45 21 -62 4z m45 -104 c8 -21 -13 -42 -28 -27
-13 13 -5 43 11 43 6 0 13 -7 17 -16z"/>
<path d="M1495 1194 c-6 -2 -9 -37 -8 -81 2 -74 3 -78 24 -78 21 0 22 3 20 75
-3 90 -6 97 -36 84z"/>
<path d="M1583 1185 c-45 -32 -35 -139 15 -152 19 -4 30 -1 44 17 25 31 24
104 -2 130 -24 24 -29 24 -57 5z m41 -27 c14 -55 1 -118 -23 -104 -12 8 -16
108 -4 119 12 12 21 7 27 -15z"/>
<path d="M1694 1193 c-5 -2 -8 -38 -7 -80 2 -74 3 -78 24 -78 21 0 22 3 20 68
-2 55 0 67 13 67 13 0 16 -13 16 -64 0 -61 12 -90 29 -70 4 5 5 43 2 84 l-6
75 -41 1 c-22 0 -45 -1 -50 -3z"/>
<path d="M1836 1184 c-24 -24 -19 -51 14 -81 32 -28 39 -53 16 -53 -7 0 -16 9
-19 21 -6 23 -27 17 -27 -7 0 -23 43 -38 69 -25 32 18 28 61 -10 94 -30 26
-32 47 -3 47 8 0 14 -7 14 -15 0 -8 5 -15 10 -15 18 0 11 29 -9 40 -27 14 -37
13 -55 -6z"/>
</g>
</svg>
